<svg xmlns:inkscape="http://www.inkscape.org/namespaces/inkscape" xmlns:sodipodi="http://sodipodi.sourceforge.net/DTD/sodipodi-0.dtd" xmlns="http://www.w3.org/2000/svg" xmlns:svg="http://www.w3.org/2000/svg" version="1.1" id="svg2" width="5556" height="5556" viewBox="1300 1600 3000 2000" sodipodi:docname="vecteezy_page-404-error-icon-vector-isolated-symbol-sign_14531365.eps">
  <defs id="defs6"/>
  <g id="g8" inkscape:groupmode="layer" inkscape:label="ink_ext_XXXXXX" transform="matrix(1.3333333,0,0,-1.3333333,0,5556)">
    <g id="g10" transform="scale(0.1)">
      <path d="M 11331.9,13581.9 V 25407.3 H 30336.3 V 13581.9 Z M 30336.3,28098.1 V 26139.2 H 11331.9 v 1958.9 z m 395.9,731.9 H 10935.9 c -218.6,0 -395.9,-163.9 -395.9,-366 V 13216 c 0,-202.1 177.3,-366 395.9,-366 h 19796.3 c 218.6,0 395.9,163.9 395.9,366 v 15248 c 0,202.1 -177.3,366 -395.9,366" style="fill:#fff;fill-opacity:1;fill-rule:nonzero;stroke:none" id="path14"/>
      <path d="m 12585.6,26805.5 c 214.4,0 388.2,160.6 388.2,358.8 0,198.1 -173.8,358.8 -388.2,358.8 -214.3,0 -388.1,-160.7 -388.1,-358.8 0,-198.2 173.8,-358.8 388.1,-358.8" style="fill:#fff;fill-opacity:1;fill-rule:nonzero;stroke:none" id="path16"/>
      <path d="m 14138.3,26805.5 c 214.4,0 388.1,160.6 388.1,358.8 0,198.1 -173.7,358.8 -388.1,358.8 -214.4,0 -388.2,-160.7 -388.2,-358.8 0,-198.2 173.8,-358.8 388.2,-358.8" style="fill:#fff;fill-opacity:1;fill-rule:nonzero;stroke:none" id="path18"/>
      <path d="m 15690.9,26805.5 c 214.4,0 388.2,160.6 388.2,358.8 0,198.1 -173.8,358.8 -388.2,358.8 -214.4,0 -388.1,-160.7 -388.1,-358.8 0,-198.2 173.7,-358.8 388.1,-358.8" style="fill:#fff;fill-opacity:1;fill-rule:nonzero;stroke:none" id="path20"/>
      <path d="m 17068.9,19266.8 h -1190.3 l 1190.3,1635.6 z m 960.7,3036.2 H 17196 l -2246.4,-3039.4 v -803.2 h 2119.3 v -963 h 960.7 v 963 h 642.8 v 806.4 h -642.8 V 22303" style="fill:#fff;fill-opacity:1;fill-rule:nonzero;stroke:none" id="path22"/>
      <path d="m 21363.9,18662.9 c -51.8,-182.9 -124.9,-309.7 -219,-380.4 -94.2,-70.7 -201.3,-106.1 -321.4,-106.1 -120.1,0 -226.7,34.8 -319.7,104.5 -93,69.6 -170.1,209.4 -231.3,419.5 -61.3,210 -91.9,595.8 -91.9,1157.3 0,561.6 34.1,960.9 102.5,1198.2 51.7,182.8 124.8,309.6 218.9,380.3 94.2,70.7 201.4,106.1 321.5,106.1 120.1,0 226.6,-35.4 319.6,-106.1 93,-70.7 170.1,-211.1 231.4,-421.1 61.2,-210.1 91.8,-595.8 91.8,-1157.4 0,-561.5 -34.1,-959.8 -102.4,-1194.8 z m -540.4,3640.1 c -501.6,0 -892.5,-163.2 -1172.7,-489.7 -339.1,-396.2 -508.6,-1044.7 -508.6,-1945.8 0,-918.5 154.2,-1556.7 462.7,-1914.7 308.5,-358.1 714.7,-537.1 1218.6,-537.1 501.5,0 892.4,163.3 1172.6,489.7 339.1,396.1 508.7,1046.9 508.7,1952.3 0,907.6 -168.4,1557.3 -505.1,1949.1 -282.6,330.8 -674.7,496.2 -1176.2,496.2" style="fill:#fff;fill-opacity:1;fill-rule:nonzero;stroke:none" id="path24"/>
      <path d="m 25115,19266.8 h -1190.4 l 1190.4,1635.6 z m 960.7,3036.2 h -833.6 l -2246.4,-3039.4 v -803.2 H 25115 v -963 h 960.7 v 963 h 642.8 v 806.4 h -642.8 V 22303" style="fill:#fff;fill-opacity:1;fill-rule:nonzero;stroke:none" id="path26"/>
    </g>
  </g>
</svg>