<svg xmlns="http://www.w3.org/2000/svg" xmlns:xlink="http://www.w3.org/1999/xlink" version="1.1" width="991px" height="321px" style="shape-rendering:geometricPrecision; text-rendering:geometricPrecision; image-rendering:optimizeQuality; fill-rule:evenodd; clip-rule:evenodd">
<g><path style="opacity:0.993" fill="#9c00c3" d="M 398.5,-0.5 C 407.833,-0.5 417.167,-0.5 426.5,-0.5C 457.176,4.0863 480.343,19.753 496,46.5C 496.667,48.1667 496.667,49.8333 496,51.5C 480.505,62.2509 464.505,72.2509 448,81.5C 442.156,71.9915 434.656,64.1581 425.5,58C 416.747,55.8385 408.081,56.1718 399.5,59C 383.942,70.2706 381.442,84.1039 392,100.5C 399.638,106.739 408.138,111.572 417.5,115C 437.728,121.631 457.395,129.631 476.5,139C 498.639,153.745 512.473,174.245 518,200.5C 525.097,233.788 517.097,262.788 494,287.5C 475.715,307.226 453.215,318.226 426.5,320.5C 420.5,320.5 414.5,320.5 408.5,320.5C 369.359,316.86 340.859,297.527 323,262.5C 321.454,258.437 320.288,254.27 319.5,250C 320.34,248.233 321.673,246.899 323.5,246C 339.665,236.752 355.665,227.252 371.5,217.5C 375.808,227.453 381.141,236.786 387.5,245.5C 403.295,261.175 420.961,263.675 440.5,253C 459.256,238.171 462.423,220.671 450,200.5C 444.502,194.01 438.002,188.843 430.5,185C 414.724,178.113 398.724,171.779 382.5,166C 339.953,144.738 321.787,110.571 328,63.5C 338.781,27.8751 362.281,6.54175 398.5,-0.5 Z"/></g>
<g><path style="opacity:0.992" fill="#9c00c3" d="M 607.5,4.5 C 632.575,4.24295 657.575,5.40962 682.5,8C 742.566,20.269 771.399,57.1023 769,118.5C 763.689,153.462 745.523,179.295 714.5,196C 702.501,201.833 689.834,205.167 676.5,206C 659.17,206.5 641.837,206.667 624.5,206.5C 624.827,242.21 624.493,277.877 623.5,313.5C 602.935,314.826 582.435,314.826 562,313.5C 561.333,211.5 561.333,109.5 562,7.5C 562.5,7 563,6.5 563.5,6C 578.339,5.83125 593.006,5.33125 607.5,4.5 Z M 624.5,64.5 C 636.838,64.3335 649.171,64.5001 661.5,65C 678.671,66.0001 692.504,73.1668 703,86.5C 713.866,110.227 708.366,129.06 686.5,143C 680.459,145.76 674.126,147.427 667.5,148C 653.171,148.5 638.837,148.667 624.5,148.5C 624.5,120.5 624.5,92.5 624.5,64.5 Z"/></g>
<g><path style="opacity:0.995" fill="#9c00c3" d="M -0.5,314.5 C -0.5,313.167 -0.5,311.833 -0.5,310.5C 37.9327,210.049 76.0993,109.382 114,8.5C 114.5,8 115,7.5 115.5,7C 136.833,6.33333 158.167,6.33333 179.5,7C 218.241,104.88 256.408,203.047 294,301.5C 295.777,305.706 296.944,310.039 297.5,314.5C 275.497,314.667 253.497,314.5 231.5,314C 223.5,294 215.5,274 207.5,254C 169.167,253.333 130.833,253.333 92.5,254C 84.5,274 76.5,294 68.5,314C 45.5024,314.5 22.5024,314.667 -0.5,314.5 Z M 149.5,91.5 C 161.603,124.139 172.936,157.139 183.5,190.5C 159.833,190.5 136.167,190.5 112.5,190.5C 124.635,157.43 136.968,124.43 149.5,91.5 Z"/></g>
<g><path style="opacity:0.995" fill="#9c00c3" d="M 990.5,254.5 C 990.5,274.167 990.5,293.833 990.5,313.5C 930.667,314.831 870.833,314.831 811,313.5C 810.333,211.5 810.333,109.5 811,7.5C 831.427,6.34053 851.927,6.17386 872.5,7C 873.498,88.7626 873.832,170.596 873.5,252.5C 912.72,251.849 951.72,252.515 990.5,254.5 Z"/></g>
</svg>