<svg xmlns="http://www.w3.org/2000/svg" xmlns:xlink="http://www.w3.org/1999/xlink" version="1.1" width="990px" height="478px" style="shape-rendering:geometricPrecision; text-rendering:geometricPrecision; image-rendering:optimizeQuality; fill-rule:evenodd; clip-rule:evenodd">
<g><path style="opacity:0.994" fill="#fefffe" d="M 375.5,11.5 C 413.376,7.84077 447.543,17.1741 478,39.5C 478.333,36.5 478.667,33.5 479,30.5C 479.75,29.8742 480.584,29.3742 481.5,29C 523.825,27.5972 566.159,27.2638 608.5,28C 633.096,28.2515 657.096,32.0848 680.5,39.5C 681.204,36.2959 681.87,33.1292 682.5,30C 711.498,29.5 740.498,29.3334 769.5,29.5C 769.333,64.5016 769.5,99.5016 770,134.5C 775.981,160.175 775.981,185.842 770,211.5C 769.5,268.166 769.333,324.832 769.5,381.5C 825.171,381.167 880.837,381.5 936.5,382.5C 937.833,411.167 937.833,439.833 936.5,468.5C 851.503,469.5 766.503,469.833 681.5,469.5C 681.833,415.163 681.5,360.829 680.5,306.5C 670.186,310.463 659.52,312.963 648.5,314C 621.502,314.5 594.502,314.667 567.5,314.5C 567.716,365.841 567.216,417.174 566,468.5C 564.915,469.293 563.748,469.96 562.5,470.5C 534.876,469.675 507.209,469.175 479.5,469C 478.685,461.913 478.185,454.747 478,447.5C 464.428,456.583 449.595,462.75 433.5,466C 432.833,467 432.167,468 431.5,469C 400.5,469.667 369.5,469.667 338.5,469C 336.5,464.667 334.5,460.333 332.5,456C 300.155,440.31 276.821,415.977 262.5,383C 221.168,382.5 179.835,382.333 138.5,382.5C 127.903,411.288 116.903,439.954 105.5,468.5C 72.9336,469.17 40.4336,469.837 8,470.5C 7.13008,469.892 6.63008,469.059 6.5,468C 61.0623,321.638 116.396,175.638 172.5,30C 202.833,29.3333 233.167,29.3333 263.5,30C 264.333,30.8333 265.167,31.6667 266,32.5C 271.209,46.6282 276.709,60.6282 282.5,74.5C 302.999,38.0007 333.999,17.0007 375.5,11.5 Z M 392.5,91.5 C 407.492,91.746 419.659,97.746 429,109.5C 433.694,115.595 438.361,121.595 443,127.5C 454.566,120.966 466.066,114.3 477.5,107.5C 478.667,141.162 478.833,174.828 478,208.5C 471.699,204.933 465.199,201.766 458.5,199C 435.833,190.333 413.167,181.667 390.5,173C 382.181,169.175 374.181,164.842 366.5,160C 352.725,145.397 349.892,128.897 358,110.5C 366.473,98.5165 377.973,92.1831 392.5,91.5 Z M 567.5,112.5 C 585.836,112.333 604.17,112.5 622.5,113C 640.381,114.844 656.381,121.177 670.5,132C 674.025,135.557 677.191,139.39 680,143.5C 681.143,153.405 681.643,163.405 681.5,173.5C 681.333,182.833 681.167,192.167 681,201.5C 668.558,220.813 650.725,230.979 627.5,232C 607.143,232.214 586.809,232.714 566.5,233.5C 566.173,193.094 566.506,152.761 567.5,112.5 Z M 220.5,150.5 C 221.497,150.47 222.164,150.97 222.5,152C 238.808,199.09 254.808,246.257 270.5,293.5C 235.832,293.667 201.165,293.5 166.5,293C 184.993,245.688 202.993,198.188 220.5,150.5 Z M 349.5,249.5 C 374.33,258.056 398.663,267.889 422.5,279C 436.439,286.939 446.939,298.105 454,312.5C 460.907,342.854 450.407,365.021 422.5,379C 415.471,381.972 408.138,383.472 400.5,383.5C 383.507,338.844 366.507,294.177 349.5,249.5 Z"/></g>
</svg>